<mxfile host="app.diagrams.net" agent="Mozilla/5.0 (Windows NT 10.0; Win64; x64) AppleWebKit/537.36 (KHTML, like Gecko) Chrome/131.0.0.0 Safari/537.36 Edg/131.0.0.0" version="26.0.3">
  <diagram name="第 1 页" id="eIiMPYyvMLedgBzBboYV">
    <mxGraphModel dx="1252" dy="1863" grid="1" gridSize="10" guides="1" tooltips="1" connect="1" arrows="1" fold="1" page="1" pageScale="1" pageWidth="827" pageHeight="1169" math="0" shadow="0">
      <root>
        <mxCell id="0" />
        <mxCell id="1" parent="0" />
        <mxCell id="1_0gjsVmTq7I0WUmsalu-7" value="&lt;span style=&quot;font-weight: 400;&quot;&gt;時間管理台&lt;/span&gt;&lt;span style=&quot;font-weight: 400;&quot;&gt;UI&lt;/span&gt;" style="swimlane;fontStyle=1;align=center;verticalAlign=top;childLayout=stackLayout;horizontal=1;startSize=26;horizontalStack=0;resizeParent=1;resizeParentMax=0;resizeLast=0;collapsible=1;marginBottom=0;whiteSpace=wrap;html=1;" parent="1" vertex="1">
          <mxGeometry x="40" y="-40" width="160" height="200" as="geometry" />
        </mxCell>
        <mxCell id="1_0gjsVmTq7I0WUmsalu-8" value="+ 當月月份&lt;div&gt;+ 本日日期&lt;/div&gt;&lt;div&gt;&amp;nbsp;&lt;/div&gt;" style="text;strokeColor=none;fillColor=none;align=left;verticalAlign=top;spacingLeft=4;spacingRight=4;overflow=hidden;rotatable=0;points=[[0,0.5],[1,0.5]];portConstraint=eastwest;whiteSpace=wrap;html=1;" parent="1_0gjsVmTq7I0WUmsalu-7" vertex="1">
          <mxGeometry y="26" width="160" height="64" as="geometry" />
        </mxCell>
        <mxCell id="1_0gjsVmTq7I0WUmsalu-9" value="" style="line;strokeWidth=1;fillColor=none;align=left;verticalAlign=middle;spacingTop=-1;spacingLeft=3;spacingRight=3;rotatable=0;labelPosition=right;points=[];portConstraint=eastwest;strokeColor=inherit;" parent="1_0gjsVmTq7I0WUmsalu-7" vertex="1">
          <mxGeometry y="90" width="160" height="20" as="geometry" />
        </mxCell>
        <mxCell id="1_0gjsVmTq7I0WUmsalu-10" value="&lt;div&gt;+ 瀏覽時間管理台UI()&lt;/div&gt;+ 切換月份()&lt;div&gt;+ 點選日期()&lt;/div&gt;&lt;div&gt;&lt;span style=&quot;background-color: transparent; color: light-dark(rgb(0, 0, 0), rgb(255, 255, 255));&quot;&gt;+ 顯示當月月份()&lt;/span&gt;&lt;/div&gt;&lt;div&gt;+ 標示本日日期()&lt;/div&gt;" style="text;strokeColor=none;fillColor=none;align=left;verticalAlign=top;spacingLeft=4;spacingRight=4;overflow=hidden;rotatable=0;points=[[0,0.5],[1,0.5]];portConstraint=eastwest;whiteSpace=wrap;html=1;" parent="1_0gjsVmTq7I0WUmsalu-7" vertex="1">
          <mxGeometry y="110" width="160" height="90" as="geometry" />
        </mxCell>
        <mxCell id="1_0gjsVmTq7I0WUmsalu-11" value="&lt;span style=&quot;font-weight: 400;&quot;&gt;萬年曆API(套件)&lt;/span&gt;" style="swimlane;fontStyle=1;align=center;verticalAlign=top;childLayout=stackLayout;horizontal=1;startSize=26;horizontalStack=0;resizeParent=1;resizeParentMax=0;resizeLast=0;collapsible=1;marginBottom=0;whiteSpace=wrap;html=1;" parent="1" vertex="1">
          <mxGeometry x="40" y="200" width="160" height="134" as="geometry" />
        </mxCell>
        <mxCell id="1_0gjsVmTq7I0WUmsalu-12" value="&lt;div&gt;+ 年份&lt;/div&gt;+ 月份&lt;div&gt;+ 日期&lt;/div&gt;" style="text;strokeColor=none;fillColor=none;align=left;verticalAlign=top;spacingLeft=4;spacingRight=4;overflow=hidden;rotatable=0;points=[[0,0.5],[1,0.5]];portConstraint=eastwest;whiteSpace=wrap;html=1;" parent="1_0gjsVmTq7I0WUmsalu-11" vertex="1">
          <mxGeometry y="26" width="160" height="74" as="geometry" />
        </mxCell>
        <mxCell id="1_0gjsVmTq7I0WUmsalu-13" value="" style="line;strokeWidth=1;fillColor=none;align=left;verticalAlign=middle;spacingTop=-1;spacingLeft=3;spacingRight=3;rotatable=0;labelPosition=right;points=[];portConstraint=eastwest;strokeColor=inherit;" parent="1_0gjsVmTq7I0WUmsalu-11" vertex="1">
          <mxGeometry y="100" width="160" height="8" as="geometry" />
        </mxCell>
        <mxCell id="1_0gjsVmTq7I0WUmsalu-14" value="+ 取得年、月、日資料()" style="text;strokeColor=none;fillColor=none;align=left;verticalAlign=top;spacingLeft=4;spacingRight=4;overflow=hidden;rotatable=0;points=[[0,0.5],[1,0.5]];portConstraint=eastwest;whiteSpace=wrap;html=1;" parent="1_0gjsVmTq7I0WUmsalu-11" vertex="1">
          <mxGeometry y="108" width="160" height="26" as="geometry" />
        </mxCell>
        <mxCell id="1_0gjsVmTq7I0WUmsalu-15" value="&lt;span style=&quot;font-weight: 400;&quot;&gt;日程UI&lt;/span&gt;" style="swimlane;fontStyle=1;align=center;verticalAlign=top;childLayout=stackLayout;horizontal=1;startSize=26;horizontalStack=0;resizeParent=1;resizeParentMax=0;resizeLast=0;collapsible=1;marginBottom=0;whiteSpace=wrap;html=1;" parent="1" vertex="1">
          <mxGeometry x="40" y="346" width="160" height="86" as="geometry" />
        </mxCell>
        <mxCell id="1_0gjsVmTq7I0WUmsalu-16" value="+ 被選擇的日期&lt;div&gt;&lt;br&gt;&lt;/div&gt;" style="text;strokeColor=none;fillColor=none;align=left;verticalAlign=top;spacingLeft=4;spacingRight=4;overflow=hidden;rotatable=0;points=[[0,0.5],[1,0.5]];portConstraint=eastwest;whiteSpace=wrap;html=1;" parent="1_0gjsVmTq7I0WUmsalu-15" vertex="1">
          <mxGeometry y="26" width="160" height="26" as="geometry" />
        </mxCell>
        <mxCell id="1_0gjsVmTq7I0WUmsalu-17" value="" style="line;strokeWidth=1;fillColor=none;align=left;verticalAlign=middle;spacingTop=-1;spacingLeft=3;spacingRight=3;rotatable=0;labelPosition=right;points=[];portConstraint=eastwest;strokeColor=inherit;" parent="1_0gjsVmTq7I0WUmsalu-15" vertex="1">
          <mxGeometry y="52" width="160" height="8" as="geometry" />
        </mxCell>
        <mxCell id="1_0gjsVmTq7I0WUmsalu-18" value="+ 選擇日期()&lt;div&gt;&lt;br&gt;&lt;/div&gt;" style="text;strokeColor=none;fillColor=none;align=left;verticalAlign=top;spacingLeft=4;spacingRight=4;overflow=hidden;rotatable=0;points=[[0,0.5],[1,0.5]];portConstraint=eastwest;whiteSpace=wrap;html=1;" parent="1_0gjsVmTq7I0WUmsalu-15" vertex="1">
          <mxGeometry y="60" width="160" height="26" as="geometry" />
        </mxCell>
        <mxCell id="1_0gjsVmTq7I0WUmsalu-19" value="&lt;span style=&quot;font-weight: 400;&quot;&gt;建立行程UI&lt;/span&gt;" style="swimlane;fontStyle=1;align=center;verticalAlign=top;childLayout=stackLayout;horizontal=1;startSize=26;horizontalStack=0;resizeParent=1;resizeParentMax=0;resizeLast=0;collapsible=1;marginBottom=0;whiteSpace=wrap;html=1;" parent="1" vertex="1">
          <mxGeometry x="40" y="446" width="160" height="280" as="geometry" />
        </mxCell>
        <mxCell id="1_0gjsVmTq7I0WUmsalu-20" value="&lt;div&gt;+ 行程內容&lt;/div&gt;&lt;div&gt;+ 開始時間&lt;/div&gt;&lt;div&gt;+ 結束時間&lt;/div&gt;&lt;div&gt;+ 行程優先度&lt;/div&gt;" style="text;strokeColor=none;fillColor=none;align=left;verticalAlign=top;spacingLeft=4;spacingRight=4;overflow=hidden;rotatable=0;points=[[0,0.5],[1,0.5]];portConstraint=eastwest;whiteSpace=wrap;html=1;" parent="1_0gjsVmTq7I0WUmsalu-19" vertex="1">
          <mxGeometry y="26" width="160" height="124" as="geometry" />
        </mxCell>
        <mxCell id="1_0gjsVmTq7I0WUmsalu-21" value="" style="line;strokeWidth=1;fillColor=none;align=left;verticalAlign=middle;spacingTop=-1;spacingLeft=3;spacingRight=3;rotatable=0;labelPosition=right;points=[];portConstraint=eastwest;strokeColor=inherit;" parent="1_0gjsVmTq7I0WUmsalu-19" vertex="1">
          <mxGeometry y="150" width="160" height="8" as="geometry" />
        </mxCell>
        <mxCell id="1_0gjsVmTq7I0WUmsalu-22" value="+ 瀏覽建立行程UI()&lt;div&gt;+ 儲存行程()&lt;/div&gt;&lt;div&gt;+ 維護行程()&lt;/div&gt;&lt;div&gt;+ 取消建立行程()&lt;/div&gt;" style="text;strokeColor=none;fillColor=none;align=left;verticalAlign=top;spacingLeft=4;spacingRight=4;overflow=hidden;rotatable=0;points=[[0,0.5],[1,0.5]];portConstraint=eastwest;whiteSpace=wrap;html=1;" parent="1_0gjsVmTq7I0WUmsalu-19" vertex="1">
          <mxGeometry y="158" width="160" height="122" as="geometry" />
        </mxCell>
        <mxCell id="1_0gjsVmTq7I0WUmsalu-23" value="&lt;span style=&quot;font-weight: 400;&quot;&gt;顯示月曆&lt;/span&gt;" style="swimlane;fontStyle=1;align=center;verticalAlign=top;childLayout=stackLayout;horizontal=1;startSize=26;horizontalStack=0;resizeParent=1;resizeParentMax=0;resizeLast=0;collapsible=1;marginBottom=0;whiteSpace=wrap;html=1;" parent="1" vertex="1">
          <mxGeometry x="380" y="-10" width="160" height="98" as="geometry" />
        </mxCell>
        <mxCell id="1_0gjsVmTq7I0WUmsalu-25" value="" style="line;strokeWidth=1;fillColor=none;align=left;verticalAlign=middle;spacingTop=-1;spacingLeft=3;spacingRight=3;rotatable=0;labelPosition=right;points=[];portConstraint=eastwest;strokeColor=inherit;" parent="1_0gjsVmTq7I0WUmsalu-23" vertex="1">
          <mxGeometry y="26" width="160" height="8" as="geometry" />
        </mxCell>
        <mxCell id="1_0gjsVmTq7I0WUmsalu-26" value="+ 顯示日曆()&lt;div&gt;+ 顯示紅色標記()&lt;/div&gt;&lt;div&gt;+ 顯示節日()&lt;/div&gt;&lt;div&gt;&lt;br&gt;&lt;/div&gt;" style="text;strokeColor=none;fillColor=none;align=left;verticalAlign=top;spacingLeft=4;spacingRight=4;overflow=hidden;rotatable=0;points=[[0,0.5],[1,0.5]];portConstraint=eastwest;whiteSpace=wrap;html=1;" parent="1_0gjsVmTq7I0WUmsalu-23" vertex="1">
          <mxGeometry y="34" width="160" height="64" as="geometry" />
        </mxCell>
        <mxCell id="1_0gjsVmTq7I0WUmsalu-27" value="&lt;span style=&quot;font-weight: 400;&quot;&gt;顯示日程&lt;/span&gt;" style="swimlane;fontStyle=1;align=center;verticalAlign=top;childLayout=stackLayout;horizontal=1;startSize=26;horizontalStack=0;resizeParent=1;resizeParentMax=0;resizeLast=0;collapsible=1;marginBottom=0;whiteSpace=wrap;html=1;" parent="1" vertex="1">
          <mxGeometry x="380" y="204" width="160" height="94" as="geometry" />
        </mxCell>
        <mxCell id="1_0gjsVmTq7I0WUmsalu-29" value="" style="line;strokeWidth=1;fillColor=none;align=left;verticalAlign=middle;spacingTop=-1;spacingLeft=3;spacingRight=3;rotatable=0;labelPosition=right;points=[];portConstraint=eastwest;strokeColor=inherit;" parent="1_0gjsVmTq7I0WUmsalu-27" vertex="1">
          <mxGeometry y="26" width="160" height="8" as="geometry" />
        </mxCell>
        <mxCell id="1_0gjsVmTq7I0WUmsalu-30" value="&lt;div&gt;+ 顯示當日日程()&lt;/div&gt;&lt;div&gt;+ 提醒功能()&lt;br&gt;&lt;div&gt;&lt;br&gt;&lt;/div&gt;&lt;/div&gt;" style="text;strokeColor=none;fillColor=none;align=left;verticalAlign=top;spacingLeft=4;spacingRight=4;overflow=hidden;rotatable=0;points=[[0,0.5],[1,0.5]];portConstraint=eastwest;whiteSpace=wrap;html=1;" parent="1_0gjsVmTq7I0WUmsalu-27" vertex="1">
          <mxGeometry y="34" width="160" height="60" as="geometry" />
        </mxCell>
        <mxCell id="1_0gjsVmTq7I0WUmsalu-36" value="&lt;span style=&quot;font-weight: 400;&quot;&gt;比對&lt;/span&gt;" style="swimlane;fontStyle=1;align=center;verticalAlign=top;childLayout=stackLayout;horizontal=1;startSize=26;horizontalStack=0;resizeParent=1;resizeParentMax=0;resizeLast=0;collapsible=1;marginBottom=0;whiteSpace=wrap;html=1;" parent="1" vertex="1">
          <mxGeometry x="380" y="550" width="160" height="74" as="geometry" />
        </mxCell>
        <mxCell id="1_0gjsVmTq7I0WUmsalu-38" value="" style="line;strokeWidth=1;fillColor=none;align=left;verticalAlign=middle;spacingTop=-1;spacingLeft=3;spacingRight=3;rotatable=0;labelPosition=right;points=[];portConstraint=eastwest;strokeColor=inherit;" parent="1_0gjsVmTq7I0WUmsalu-36" vertex="1">
          <mxGeometry y="26" width="160" height="8" as="geometry" />
        </mxCell>
        <mxCell id="1_0gjsVmTq7I0WUmsalu-39" value="+ 警示行程衝突()&lt;div&gt;+ 比對&lt;span style=&quot;background-color: transparent; color: light-dark(rgb(0, 0, 0), rgb(255, 255, 255));&quot;&gt;行程清單()&lt;/span&gt;&lt;/div&gt;&lt;div&gt;&lt;br&gt;&lt;/div&gt;" style="text;strokeColor=none;fillColor=none;align=left;verticalAlign=top;spacingLeft=4;spacingRight=4;overflow=hidden;rotatable=0;points=[[0,0.5],[1,0.5]];portConstraint=eastwest;whiteSpace=wrap;html=1;" parent="1_0gjsVmTq7I0WUmsalu-36" vertex="1">
          <mxGeometry y="34" width="160" height="40" as="geometry" />
        </mxCell>
        <mxCell id="1_0gjsVmTq7I0WUmsalu-40" value="&lt;span style=&quot;font-weight: 400;&quot;&gt;行程資料&lt;/span&gt;" style="swimlane;fontStyle=1;align=center;verticalAlign=top;childLayout=stackLayout;horizontal=1;startSize=26;horizontalStack=0;resizeParent=1;resizeParentMax=0;resizeLast=0;collapsible=1;marginBottom=0;whiteSpace=wrap;html=1;" parent="1" vertex="1">
          <mxGeometry x="720" y="200" width="160" height="210" as="geometry" />
        </mxCell>
        <mxCell id="1_0gjsVmTq7I0WUmsalu-41" value="+&amp;nbsp;&lt;span style=&quot;background-color: transparent; color: light-dark(rgb(0, 0, 0), rgb(255, 255, 255));&quot;&gt;行程名稱&lt;/span&gt;&lt;div&gt;&lt;span style=&quot;background-color: transparent; color: light-dark(rgb(0, 0, 0), rgb(255, 255, 255));&quot;&gt;+ 開始時間&lt;/span&gt;&lt;/div&gt;&lt;div&gt;&lt;span style=&quot;background-color: transparent; color: light-dark(rgb(0, 0, 0), rgb(255, 255, 255));&quot;&gt;+ 結束時間&amp;nbsp;&lt;/span&gt;&lt;/div&gt;&lt;div&gt;&lt;span style=&quot;background-color: transparent; color: light-dark(rgb(0, 0, 0), rgb(255, 255, 255));&quot;&gt;+ 地點&lt;/span&gt;&lt;/div&gt;" style="text;strokeColor=none;fillColor=none;align=left;verticalAlign=top;spacingLeft=4;spacingRight=4;overflow=hidden;rotatable=0;points=[[0,0.5],[1,0.5]];portConstraint=eastwest;whiteSpace=wrap;html=1;" parent="1_0gjsVmTq7I0WUmsalu-40" vertex="1">
          <mxGeometry y="26" width="160" height="84" as="geometry" />
        </mxCell>
        <mxCell id="1_0gjsVmTq7I0WUmsalu-42" value="" style="line;strokeWidth=1;fillColor=none;align=left;verticalAlign=middle;spacingTop=-1;spacingLeft=3;spacingRight=3;rotatable=0;labelPosition=right;points=[];portConstraint=eastwest;strokeColor=inherit;" parent="1_0gjsVmTq7I0WUmsalu-40" vertex="1">
          <mxGeometry y="110" width="160" height="48" as="geometry" />
        </mxCell>
        <mxCell id="1_0gjsVmTq7I0WUmsalu-43" value="+ 維護行程()&lt;div&gt;+ 清除過期行程()&lt;/div&gt;" style="text;strokeColor=none;fillColor=none;align=left;verticalAlign=top;spacingLeft=4;spacingRight=4;overflow=hidden;rotatable=0;points=[[0,0.5],[1,0.5]];portConstraint=eastwest;whiteSpace=wrap;html=1;" parent="1_0gjsVmTq7I0WUmsalu-40" vertex="1">
          <mxGeometry y="158" width="160" height="52" as="geometry" />
        </mxCell>
        <mxCell id="4n5dHgkGkEbY2AHfBp7f-2" value="&lt;span style=&quot;font-weight: 400;&quot;&gt;建立&lt;/span&gt;" style="swimlane;fontStyle=1;align=center;verticalAlign=top;childLayout=stackLayout;horizontal=1;startSize=26;horizontalStack=0;resizeParent=1;resizeParentMax=0;resizeLast=0;collapsible=1;marginBottom=0;whiteSpace=wrap;html=1;" parent="1" vertex="1">
          <mxGeometry x="380" y="384" width="160" height="94" as="geometry" />
        </mxCell>
        <mxCell id="4n5dHgkGkEbY2AHfBp7f-3" value="" style="line;strokeWidth=1;fillColor=none;align=left;verticalAlign=middle;spacingTop=-1;spacingLeft=3;spacingRight=3;rotatable=0;labelPosition=right;points=[];portConstraint=eastwest;strokeColor=inherit;" parent="4n5dHgkGkEbY2AHfBp7f-2" vertex="1">
          <mxGeometry y="26" width="160" height="8" as="geometry" />
        </mxCell>
        <mxCell id="4n5dHgkGkEbY2AHfBp7f-4" value="&lt;div&gt;+&amp;nbsp;輸入行程名稱()&lt;div&gt;+ 填入時間()&lt;/div&gt;&lt;div&gt;+&amp;nbsp;儲存行程()&lt;/div&gt;&lt;/div&gt;" style="text;strokeColor=none;fillColor=none;align=left;verticalAlign=top;spacingLeft=4;spacingRight=4;overflow=hidden;rotatable=0;points=[[0,0.5],[1,0.5]];portConstraint=eastwest;whiteSpace=wrap;html=1;" parent="4n5dHgkGkEbY2AHfBp7f-2" vertex="1">
          <mxGeometry y="34" width="160" height="60" as="geometry" />
        </mxCell>
        <mxCell id="VDsD-EcFTvQJ5vkUQHVs-2" value="" style="endArrow=classicThin;startArrow=none;endFill=1;startFill=0;endSize=8;html=1;verticalAlign=bottom;dashed=1;labelBackgroundColor=none;rounded=0;entryX=0;entryY=0.406;entryDx=0;entryDy=0;entryPerimeter=0;" parent="1" target="1_0gjsVmTq7I0WUmsalu-26" edge="1">
          <mxGeometry width="160" relative="1" as="geometry">
            <mxPoint x="200" y="30" as="sourcePoint" />
            <mxPoint x="360" y="30" as="targetPoint" />
          </mxGeometry>
        </mxCell>
        <mxCell id="VDsD-EcFTvQJ5vkUQHVs-3" value="" style="endArrow=classicThin;startArrow=none;endFill=1;startFill=0;endSize=8;html=1;verticalAlign=bottom;dashed=1;labelBackgroundColor=none;rounded=0;entryX=0;entryY=0.5;entryDx=0;entryDy=0;" parent="1" target="1_0gjsVmTq7I0WUmsalu-26" edge="1">
          <mxGeometry width="160" relative="1" as="geometry">
            <mxPoint x="200" y="250" as="sourcePoint" />
            <mxPoint x="370" y="270" as="targetPoint" />
          </mxGeometry>
        </mxCell>
        <mxCell id="VDsD-EcFTvQJ5vkUQHVs-4" value="" style="endArrow=classicThin;startArrow=classicThin;endFill=1;startFill=1;endSize=8;html=1;verticalAlign=bottom;dashed=1;labelBackgroundColor=none;rounded=0;entryX=0;entryY=0.5;entryDx=0;entryDy=0;" parent="1" edge="1">
          <mxGeometry width="160" relative="1" as="geometry">
            <mxPoint x="540" y="270" as="sourcePoint" />
            <mxPoint x="730" y="288" as="targetPoint" />
          </mxGeometry>
        </mxCell>
        <mxCell id="VDsD-EcFTvQJ5vkUQHVs-5" value="" style="endArrow=classicThin;startArrow=none;endFill=1;startFill=0;endSize=8;html=1;verticalAlign=bottom;dashed=1;labelBackgroundColor=none;rounded=0;entryX=-0.002;entryY=0.397;entryDx=0;entryDy=0;entryPerimeter=0;" parent="1" target="1_0gjsVmTq7I0WUmsalu-30" edge="1">
          <mxGeometry width="160" relative="1" as="geometry">
            <mxPoint x="200" y="392" as="sourcePoint" />
            <mxPoint x="390" y="410" as="targetPoint" />
          </mxGeometry>
        </mxCell>
        <mxCell id="VDsD-EcFTvQJ5vkUQHVs-6" value="" style="endArrow=classicThin;startArrow=none;endFill=1;startFill=0;endSize=8;html=1;verticalAlign=bottom;dashed=1;labelBackgroundColor=none;rounded=0;entryX=-0.012;entryY=0.277;entryDx=0;entryDy=0;entryPerimeter=0;" parent="1" edge="1">
          <mxGeometry width="160" relative="1" as="geometry">
            <mxPoint x="202" y="563" as="sourcePoint" />
            <mxPoint x="380" y="606" as="targetPoint" />
          </mxGeometry>
        </mxCell>
        <mxCell id="VDsD-EcFTvQJ5vkUQHVs-7" value="" style="endArrow=classicThin;startArrow=classicThin;endFill=1;startFill=1;endSize=8;html=1;verticalAlign=bottom;dashed=1;labelBackgroundColor=none;rounded=0;" parent="1" edge="1">
          <mxGeometry width="160" relative="1" as="geometry">
            <mxPoint x="450" y="90" as="sourcePoint" />
            <mxPoint x="450" y="200" as="targetPoint" />
          </mxGeometry>
        </mxCell>
        <mxCell id="VDsD-EcFTvQJ5vkUQHVs-8" value="" style="endArrow=classicThin;startArrow=classicThin;endFill=1;startFill=1;endSize=8;html=1;verticalAlign=bottom;dashed=1;labelBackgroundColor=none;rounded=0;" parent="1" edge="1">
          <mxGeometry width="160" relative="1" as="geometry">
            <mxPoint x="459.5" y="300" as="sourcePoint" />
            <mxPoint x="460" y="380" as="targetPoint" />
          </mxGeometry>
        </mxCell>
        <mxCell id="VDsD-EcFTvQJ5vkUQHVs-9" value="" style="endArrow=classicThin;startArrow=classicThin;endFill=1;startFill=1;endSize=8;html=1;verticalAlign=bottom;dashed=1;labelBackgroundColor=none;rounded=0;" parent="1" edge="1">
          <mxGeometry width="160" relative="1" as="geometry">
            <mxPoint x="459.5" y="478" as="sourcePoint" />
            <mxPoint x="460" y="550" as="targetPoint" />
          </mxGeometry>
        </mxCell>
        <mxCell id="VDsD-EcFTvQJ5vkUQHVs-10" value="" style="endArrow=classicThin;startArrow=none;endFill=1;startFill=0;endSize=8;html=1;verticalAlign=bottom;dashed=1;labelBackgroundColor=none;rounded=0;entryX=0;entryY=0.367;entryDx=0;entryDy=0;entryPerimeter=0;" parent="1" target="1_0gjsVmTq7I0WUmsalu-30" edge="1">
          <mxGeometry width="160" relative="1" as="geometry">
            <mxPoint x="200" y="68" as="sourcePoint" />
            <mxPoint x="380" y="88" as="targetPoint" />
          </mxGeometry>
        </mxCell>
        <mxCell id="VDsD-EcFTvQJ5vkUQHVs-11" value="" style="endArrow=classicThin;startArrow=none;endFill=1;startFill=0;endSize=8;html=1;verticalAlign=bottom;dashed=1;labelBackgroundColor=none;rounded=0;entryX=-0.002;entryY=0.157;entryDx=0;entryDy=0;entryPerimeter=0;" parent="1" target="4n5dHgkGkEbY2AHfBp7f-4" edge="1">
          <mxGeometry width="160" relative="1" as="geometry">
            <mxPoint x="200" y="120" as="sourcePoint" />
            <mxPoint x="380" y="312" as="targetPoint" />
          </mxGeometry>
        </mxCell>
        <mxCell id="VDsD-EcFTvQJ5vkUQHVs-12" value="" style="endArrow=classicThin;startArrow=none;endFill=1;startFill=0;endSize=8;html=1;verticalAlign=bottom;dashed=1;labelBackgroundColor=none;rounded=0;entryX=-0.012;entryY=0.383;entryDx=0;entryDy=0;entryPerimeter=0;exitX=1.013;exitY=0.931;exitDx=0;exitDy=0;exitPerimeter=0;" parent="1" source="1_0gjsVmTq7I0WUmsalu-16" target="4n5dHgkGkEbY2AHfBp7f-4" edge="1">
          <mxGeometry width="160" relative="1" as="geometry">
            <mxPoint x="190" y="410" as="sourcePoint" />
            <mxPoint x="370" y="280" as="targetPoint" />
          </mxGeometry>
        </mxCell>
        <mxCell id="VDsD-EcFTvQJ5vkUQHVs-14" value="" style="endArrow=classicThin;startArrow=classicThin;endFill=1;startFill=1;endSize=8;html=1;verticalAlign=bottom;dashed=1;labelBackgroundColor=none;rounded=0;" parent="1" edge="1">
          <mxGeometry width="160" relative="1" as="geometry">
            <mxPoint x="540" y="60" as="sourcePoint" />
            <mxPoint x="720" y="290" as="targetPoint" />
          </mxGeometry>
        </mxCell>
        <mxCell id="VDsD-EcFTvQJ5vkUQHVs-15" value="" style="endArrow=classicThin;startArrow=classicThin;endFill=1;startFill=1;endSize=8;html=1;verticalAlign=bottom;dashed=1;labelBackgroundColor=none;rounded=0;entryX=0.003;entryY=0.998;entryDx=0;entryDy=0;entryPerimeter=0;" parent="1" target="1_0gjsVmTq7I0WUmsalu-41" edge="1">
          <mxGeometry width="160" relative="1" as="geometry">
            <mxPoint x="540" y="446" as="sourcePoint" />
            <mxPoint x="720" y="676" as="targetPoint" />
          </mxGeometry>
        </mxCell>
        <mxCell id="VDsD-EcFTvQJ5vkUQHVs-16" value="" style="endArrow=classicThin;startArrow=classicThin;endFill=1;startFill=1;endSize=8;html=1;verticalAlign=bottom;dashed=1;labelBackgroundColor=none;rounded=0;" parent="1" edge="1">
          <mxGeometry width="160" relative="1" as="geometry">
            <mxPoint x="540" y="586" as="sourcePoint" />
            <mxPoint x="720" y="320" as="targetPoint" />
          </mxGeometry>
        </mxCell>
      </root>
    </mxGraphModel>
  </diagram>
</mxfile>
